<svg xmlns="http://www.w3.org/2000/svg" width="1200" height="900" viewBox="0 0 1200 900">
  <defs>
    <linearGradient id="bg" x1="0" y1="0" x2="1" y2="1"><stop stop-color="#07131f"/><stop offset="1" stop-color="#174a70"/></linearGradient>
    <radialGradient id="g" cx="50%" cy="45%" r="50%"><stop stop-color="#b9f4ff" stop-opacity=".65"/><stop offset="1" stop-color="#6bdcff" stop-opacity="0"/></radialGradient>
  </defs>
  <rect width="1200" height="900" rx="52" fill="url(#bg)"/>
  <rect width="1200" height="900" rx="52" fill="url(#g)"/>
  <g transform="translate(600 410)" fill="none" stroke="#d9fbff" stroke-linecap="round">
    <circle r="205" stroke-width="7" opacity=".55"/>
    <path d="M0-230V230M-199-115L199 115M-199 115L199-115" stroke-width="20"/>
    <path d="M0-230l-38 58M0-230l38 58M0 230l-38-58M0 230l38-58M-199-115l70 2M-199-115l35 61M199 115l-70-2M199 115l-35-61M-199 115l70 2M-199 115l35-61M199-115l-70-2M199-115l-35 61" stroke-width="14"/>
  </g>
  <g transform="translate(465 210)">
    <path d="M45 0h190l20 96c8 37 23 63 49 83l29 22v355c0 53-43 96-96 96H43c-53 0-96-43-96-96V201l29-22c26-20 41-46 49-83L45 0z" fill="#d7f7ff" fill-opacity=".18" stroke="#d8f8ff" stroke-width="8"/>
    <rect x="0" y="215" width="280" height="250" rx="28" fill="#091b2d" stroke="#7fe8ff" stroke-width="6"/>
    <text x="140" y="325" text-anchor="middle" font-family="Arial, sans-serif" font-size="48" font-weight="800" fill="#dffbff">FROST</text>
    <text x="140" y="385" text-anchor="middle" font-family="Arial, sans-serif" font-size="48" font-weight="800" fill="#89eaff">NOVA</text>
  </g>
  <text x="80" y="785" font-family="Arial, sans-serif" font-size="72" font-weight="900" fill="#effdff">Frost Nova</text>
  <text x="84" y="840" font-family="Arial, sans-serif" font-size="30" fill="#9aefff">Limited Edition · коллекционная кружка</text>
</svg>
