<svg xmlns="http://www.w3.org/2000/svg" width="1200" height="900" viewBox="0 0 1200 900">
  <defs><linearGradient id="bg" x1="0" y1="0" x2="1" y2="1"><stop stop-color="#1c120b"/><stop offset="1" stop-color="#6b3d17"/></linearGradient><radialGradient id="g"><stop stop-color="#f7d07d" stop-opacity=".45"/><stop offset="1" stop-color="#f7d07d" stop-opacity="0"/></radialGradient></defs>
  <rect width="1200" height="900" rx="52" fill="url(#bg)"/>
  <circle cx="610" cy="390" r="360" fill="url(#g)"/>
  <g transform="translate(360 100)">
    <path d="M70 0h340l-36 520c-4 58-52 103-110 103H216c-58 0-106-45-110-103L70 0z" fill="#e7c993" fill-opacity=".22" stroke="#f3d799" stroke-width="9"/>
    <path d="M404 110h75c82 0 145 62 145 138s-63 138-145 138h-88" fill="none" stroke="#f3d799" stroke-width="32"/>
    <path d="M105 170h270l-18 270c-3 39-34 69-73 69h-88c-39 0-70-30-73-69l-18-270z" fill="#b76a1b" opacity=".82"/>
    <text x="240" y="315" text-anchor="middle" font-family="Georgia, serif" font-size="54" font-weight="700" fill="#fff1c7">ВАШЕ ИМЯ</text>
    <path d="M120 360c83-36 165-36 248 0" fill="none" stroke="#fff1c7" stroke-width="6" opacity=".8"/>
  </g>
  <text x="80" y="785" font-family="Arial, sans-serif" font-size="68" font-weight="900" fill="#fff3d0">Именной бокал</text>
  <text x="84" y="840" font-family="Arial, sans-serif" font-size="30" fill="#e9c98f">Надпись, имя или короткая фраза</text>
</svg>
