<svg xmlns="http://www.w3.org/2000/svg" width="1200" height="900" viewBox="0 0 1200 900">
  <defs><linearGradient id="bg" x1="0" y1="0" x2="1" y2="1"><stop stop-color="#1a0704"/><stop offset="1" stop-color="#6b1609"/></linearGradient><radialGradient id="g"><stop stop-color="#ffb028" stop-opacity=".45"/><stop offset="1" stop-color="#ff4e00" stop-opacity="0"/></radialGradient></defs>
  <rect width="1200" height="900" rx="52" fill="url(#bg)"/>
  <circle cx="600" cy="410" r="330" fill="url(#g)"/>
  <circle cx="600" cy="410" r="210" fill="#230b06" stroke="#ff7b1e" stroke-width="14"/>
  <circle cx="600" cy="410" r="175" fill="#3b160d"/>
  <g fill="#ff9a2e"><path d="M600 118c-38 69 4 107-31 155-18 25-64 31-78 85-16 62 29 111 109 111 92 0 138-55 118-123-15-51-58-64-65-117-6-40 7-74-53-111z"/><path d="M378 230c-10 57 31 69 12 108-15 31-50 35-50 80 0 51 43 85 101 75-39-40-15-74 6-105 27-39 17-94-69-158z" opacity=".75"/><path d="M818 230c12 62-31 69-12 108 15 31 50 35 50 80 0 51-43 85-101 75 39-40 15-74-6-105-27-39-17-94 69-158z" opacity=".75"/></g>
  <text x="80" y="795" font-family="Arial" font-size="62" font-weight="900" fill="#fff2df">Огненная рамка</text>
</svg>
